<svg width="16" height="16" viewBox="0 0 16 16" fill="none" xmlns="http://www.w3.org/2000/svg">
<path fill-rule="evenodd" clip-rule="evenodd" d="M4.87369 1.56085C3.26645 2.09195 2.33858 3.13804 2.11798 4.82967C2.01747 5.60042 1.97042 6.3756 2.01969 7.15324C2.10872 8.55837 2.61904 9.90397 3.48401 11.0143C3.62026 11.1892 3.77182 11.3602 4.07492 11.7022L5.08492 12.8419C6.239 14.1441 6.81604 14.7953 7.52861 14.9495C7.83927 15.0168 8.1607 15.0168 8.47135 14.9496C9.18392 14.7953 9.76097 14.1441 10.9151 12.8419L11.9251 11.7022C12.2282 11.3602 12.3797 11.1892 12.516 11.0143C13.381 9.90398 13.8913 8.55836 13.9804 7.1532C14.0296 6.37554 13.9823 5.60044 13.8818 4.82967C13.6612 3.13804 12.7333 2.09195 11.1261 1.56085C10.2109 1.25845 9.10541 1 7.99989 1C6.89437 1 5.78885 1.25845 4.87369 1.56085ZM7.66763 4.84624C7.77493 4.83825 7.88692 4.83331 8.0001 4.83331C8.11329 4.83331 8.22528 4.83825 8.33257 4.84624L8.37868 4.84963C8.72525 4.87491 9.03625 4.8976 9.31936 5.18072C9.60248 5.46383 9.62517 5.77483 9.65045 6.1214L9.65384 6.16751C9.66183 6.2748 9.66677 6.3868 9.66677 6.49998C9.66677 6.61316 9.66183 6.72516 9.65384 6.83245L9.65045 6.87856C9.62517 7.22512 9.60248 7.53613 9.31936 7.81924C9.03625 8.10236 8.72525 8.12505 8.37868 8.15033L8.33257 8.15372C8.22528 8.1617 8.11329 8.16665 8.0001 8.16665C7.88692 8.16665 7.77492 8.1617 7.66763 8.15372L7.62152 8.15033C7.27496 8.12505 6.96395 8.10235 6.68084 7.81924C6.39773 7.53613 6.37504 7.22512 6.34975 6.87856L6.34636 6.83245C6.33838 6.72516 6.33344 6.61316 6.33344 6.49998C6.33344 6.3868 6.33838 6.2748 6.34636 6.16751L6.34975 6.1214C6.37504 5.77483 6.39773 5.46383 6.68084 5.18072C6.96395 4.8976 7.27496 4.87491 7.62152 4.84963L7.66763 4.84624Z" fill="white"/>
</svg>
